<svg xmlns="http://www.w3.org/2000/svg" viewBox="0 0 500 225.09"><g id="Calque_2" data-name="Calque 2"><g id="Calque_3" data-name="Calque 3"><path d="M500,200.09c-.8,33.16-49.36,32.69-50-.43a50,50,0,0,0-100,0c-.12,13.78-11.05,25.34-24.83,25.43a25,25,0,0,1-25.17-25C302.25,68.64,497.78,68.67,500,200.09Z" fill="#6e61ff"/><circle cx="400" cy="37.5" r="37.5" fill="#6e61ff"/><path d="M350,200.09c-.8,33.16-49.36,32.69-50-.43a50,50,0,0,0-100,0c-.12,13.78-11.05,25.34-24.83,25.43a25,25,0,0,1-25.17-25C152.25,68.64,347.78,68.67,350,200.09Z" fill="#6e61ff"/><circle cx="250" cy="37.5" r="37.5" fill="#6e61ff"/><path d="M200,200.09c-.8,33.16-49.36,32.69-50-.43a50,50,0,0,0-100,0c-.12,13.78-11,25.34-24.83,25.43A25,25,0,0,1,0,200.09C2.25,68.64,197.78,68.67,200,200.09Z" fill="#6e61ff"/><circle cx="100" cy="37.5" r="37.5" fill="#6e61ff"/></g></g></svg>